#!OML:ASF F:\VICON\USERDATA\INSTALL\rory3\rory3.ASF
:FULLY-SPECIFIED
:DEGREES
273
root -1.74337 16.5981 0.246779 169.555 -33.748 -183.54
lowerback 22.2835 -3.12675 -4.91825
upperback 0.534573 -5.44009 1.41842
thorax -11.2883 -2.3184 6.10468
lowerneck -7.12125 -9.31237 -5.69906
upperneck 6.47686 -11.9064 -0.365924
head 3.71467 -6.07005 0.178963
rclavicle 1.49337e-014 -1.74931e-014
rhumerus 47.318 -0.884574 -52.8531
rradius 98.2494
rwrist 31.0599
rhand 10.134 -11.9107
rfingers 7.12502
rthumb 35.2534 -38.4072
lclavicle 1.49337e-014 -1.74931e-014
lhumerus 53.3725 -26.9953 82.0731
lradius 77.0609
lwrist 44.8006
lhand -12.4253 48.8628
lfingers 7.12502
lthumb 13.6472 -281.605
rfemur -17.0919 3.17895 14.5495
rtibia 60.4836
rfoot -26.6945 -5.07605
rtoes -5.36918
lfemur -12.9652 1.73239 -27.6965
ltibia 53.9785
lfoot -23.9649 -7.91549
ltoes -2.04826
274
root -1.744 16.5509 0.184551 169.098 -33.5918 -182.987
lowerback 22.2425 -3.11713 -4.57234
upperback 0.502812 -5.32597 1.50635
thorax -11.3384 -2.27737 5.972
lowerneck -6.59189 -9.36699 -5.7446
upperneck 6.18916 -12.017 -0.293435
head 3.52288 -6.12123 0.240197
rclavicle 5.31252e-014 -2.3059e-014
rhumerus 47.88 -1.23562 -52.6592
rradius 97.5532
rwrist 31.8189
rhand 10.134 -11.9107
rfingers 7.12502
rthumb 35.2534 -38.4072
lclavicle 5.31252e-014 -2.3059e-014
lhumerus 53.7975 -26.5584 82.1018
lradius 77.1163
lwrist 45.2951
lhand -10.9176 48.3839
lfingers 7.12502
lthumb 15.0999 -282.187
rfemur -17.0238 3.10606 15.3061
rtibia 61.1468
rfoot -27.127 -5.2443
rtoes -4.61242
lfemur -13.1467 1.86952 -27.0549
ltibia 54.9477
lfoot -24.4162 -7.89098
ltoes -1.94511
275
root -1.74494 16.4867 0.138657 168.85 -33.2566 -182.654
lowerback 22.3206 -3.05176 -4.208
upperback 0.380706 -5.14782 1.46868
thorax -11.5788 -2.19671 5.68515
lowerneck -6.23786 -9.3576 -5.6907
upperneck 5.99252 -12.0388 -0.184128
head 3.391 -6.12453 0.290465
rclavicle -1.60022e-014 3.73715e-014
rhumerus 48.2767 -1.58619 -52.4132
rradius 97.2338
rwrist 31.7956
rhand 10.134 -11.9107
rfingers 7.12502
rthumb 35.2534 -38.4072
lclavicle -1.60022e-014 3.73715e-014
lhumerus 54.2279 -26.2555 82.0556
lradius 77.1826
lwrist 46.016
lhand -10.1224 47.7339
lfingers 7.12502
lthumb 15.8657 -282.896
rfemur -17.386 2.98168 15.7737
rtibia 61.9385
rfoot -27.1283 -5.03731
rtoes -6.56879
lfemur -13.4987 2.05145 -26.6732
ltibia 55.957
lfoot -24.8072 -7.79764
ltoes -0.838717
276
root -1.74263 16.4285 0.0794745 168.67 -33.4255 -182.709
lowerback 22.4905 -3.00802 -4.30928
upperback 0.328487 -5.13105 1.38161
thorax -11.7351 -2.1748 5.65827
lowerneck -6.09957 -9.36114 -5.59534
upperneck 5.87829 -12.0602 -0.167834
head 3.31944 -6.13074 0.29047
rclavicle 1.10996e-013 1.43125e-014
rhumerus 48.6439 -2.12902 -52.0475
rradius 96.9296
rwrist 32.0368
rhand 10.134 -11.9107
rfingers 7.12502
rthumb 35.2534 -38.4072
lclavicle 1.10996e-013 1.43125e-014
lhumerus 54.7628 -26.0031 82.0839
lradius 77.3207
lwrist 46.9113
lhand -9.18827 48.2601
lfingers 7.12502
lthumb 16.7652 -282.444
rfemur -17.4851 2.59188 15.8356
rtibia 62.7266
rfoot -27.1274 -5.04376
rtoes -4.38643
lfemur -13.4887 1.91609 -26.6533
ltibia 56.8725
lfoot -25.1903 -7.92958
ltoes 1.16338
277
root -1.73904 16.371 0.018053 168.259 -33.3855 -182.363
lowerback 22.4468 -2.88191 -4.2216
upperback 0.465442 -4.93418 1.4982
thorax -11.5734 -2.09998 5.66857
lowerneck -6.16641 -9.41665 -5.68071
upperneck 5.99474 -12.1299 -0.0535673
head 3.39004 -6.16376 0.328267
rclavicle 7.83957e-014 2.46493e-014
rhumerus 49.2069 -2.82325 -51.5406
rradius 96.5494
rwrist 32.713
rhand 10.134 -11.9107
rfingers 7.12502
rthumb 35.2534 -38.4072
lclavicle 7.83957e-014 2.46493e-014
lhumerus 55.5138 -25.72 82.1057
lradius 77.5248
lwrist 48.0821
lhand -8.42327 48.1665
lfingers 7.12502
lthumb 17.5015 -282.601
rfemur -17.4966 2.52031 16.3489
rtibia 63.5019
rfoot -27.4078 -5.17395
rtoes -5.27609
lfemur -13.5186 1.96466 -26.191
ltibia 57.8391
lfoot -25.4727 -8.14678
ltoes 3.69449
278
root -1.73345 16.3174 -0.048669 167.762 -33.3193 -181.847
lowerback 22.129 -2.79633 -4.19765
upperback 0.783187 -4.79289 1.74455
thorax -11.0312 -2.07267 5.8432
lowerneck -6.53757 -9.44699 -5.79232
upperneck 6.29438 -12.1402 -0.00315621
head 3.57909 -6.17166 0.331318
rclavicle 1.16488e-013 -1.35174e-014
rhumerus 50.1436 -3.43195 -51.0037
rradius 96.3658
rwrist 32.8527
rhand 10.134 -11.9107
rfingers 7.12502
rthumb 35.2534 -38.4072
lclavicle 1.16488e-013 -1.35174e-014
lhumerus 56.4038 -25.2177 81.9935
lradius 77.8024
lwrist 49.6003
lhand -7.71586 48.1838
lfingers 7.12502
lthumb 18.1822 -282.646
rfemur -17.3607 2.44151 17.0631
rtibia 64.2277
rfoot -27.8546 -5.57964
rtoes -7.39062
lfemur -13.6224 2.11479 -25.5258
ltibia 58.8384
lfoot -25.7904 -8.33052
ltoes 5.35517
279
root -1.73388 16.2633 -0.104114 167.613 -33.4315 -181.745
lowerback 22.2273 -2.83556 -4.15036
upperback 0.666645 -4.83536 1.69278
thorax -11.2215 -2.08067 5.78614
lowerneck -6.14954 -9.73681 -5.99769
upperneck 6.16532 -12.5361 -0.0539756
head 3.48337 -6.37559 0.347625
rclavicle -3.66261e-014 -7.95139e-015
rhumerus 50.5057 -3.66485 -50.7172
rradius 96.1692
rwrist 33.0853
rhand 10.134 -11.9107
rfingers 7.12502
rthumb 35.2534 -38.4072
lclavicle -3.66261e-014 -7.95139e-015
lhumerus 56.6868 -24.912 82.0668
lradius 77.9424
lwrist 51.3732
lhand -7.46027 48.4701
lfingers 7.12502
lthumb 18.4281 -282.383
rfemur -17.3931 2.06738 17.223
rtibia 64.9759
rfoot -28.3461 -5.55145
rtoes -7.41112
lfemur -13.8971 2.12852 -25.3479
ltibia 59.8821
lfoot -26.1896 -8.51746
ltoes 6.98582
280
root -1.7313 16.1983 -0.150225 167.38 -33.4338 -181.515
lowerback 22.4714 -2.85975 -3.8722
upperback 0.442561 -4.80713 1.56733
thorax -11.6501 -2.05377 5.51294
lowerneck -5.55563 -9.7464 -5.74763
upperneck 6.28212 -12.6134 -0.118769
head 3.38849 -6.41661 0.31241
rclavicle 3.33213e-014 1.90833e-014
rhumerus 50.5721 -3.8494 -50.469
rradius 96.0665
rwrist 33.2708
rhand 10.134 -11.9107
rfingers 7.12502
rthumb 35.2534 -38.4072
lclavicle 3.33213e-014 1.90833e-014
lhumerus 56.725 -24.8282 82.1038
lradius 78.0867
lwrist 53.3467
lhand -7.32177 48.7046
lfingers 7.12502
lthumb 18.5613 -282.161
rfemur -17.5356 1.73705 17.5241
rtibia 65.7578
rfoot -28.7451 -5.73481
rtoes -7.99861
lfemur -14.2293 2.13036 -25.0639
ltibia 60.9755
lfoot -26.4879 -8.62037
ltoes 8.41161
281
root -1.72504 16.1314 -0.201918 166.975 -33.3446 -181.136
lowerback 22.6691 -2.7914 -3.56274
upperback 0.285587 -4.64576 1.47282
thorax -11.991 -1.97553 5.20697
lowerneck -4.40285 -9.74987 -5.41634
upperneck 5.78116 -12.7264 0.00593282
head 2.98526 -6.45973 0.374895
rclavicle -2.28602e-015 -1.27222e-014
rhumerus 50.4707 -4.20198 -50.1775
rradius 95.9043
rwrist 33.4601
rhand 10.134 -11.9107
rfingers 7.12502
rthumb 35.2534 -38.4072
lclavicle -2.28602e-015 -1.27222e-014
lhumerus 56.7565 -24.9441 82.086
lradius 78.3872
lwrist 55.4188
lhand -6.92768 48.8246
lfingers 7.12502
lthumb 18.9404 -282.078
rfemur -17.6073 1.60542 18.0246
rtibia 66.5509
rfoot -29.1008 -5.8038
rtoes -7.74026
lfemur -14.4471 2.24881 -24.5626
ltibia 62.0198
lfoot -26.8924 -8.4995
ltoes 7.22361
282
root -1.7251 16.0721 -0.255093 166.796 -33.3482 -181.033
lowerback 22.9969 -2.66202 -3.35657
upperback -0.0178611 -4.43144 1.33927
thorax -12.5739 -1.85238 4.91476
lowerneck -3.11121 -9.84712 -5.19116
upperneck 5.05173 -12.9515 0.0706479
head 2.49432 -6.56135 0.445566
rclavicle 2.19409e-014 5.08889e-014
rhumerus 50.0693 -4.58176 -49.664
rradius 95.6366
rwrist 33.7249
rhand 10.134 -11.9107
rfingers 7.12502
rthumb 35.2534 -38.4072
lclavicle 2.19409e-014 5.08889e-014
lhumerus 56.7544 -25.2583 82.2458
lradius 78.7343
lwrist 57.4895
lhand -6.74803 49.1021
lfingers 7.12502
lthumb 19.1131 -281.817
rfemur -17.7271 1.52192 18.1958
rtibia 67.3277
rfoot -29.5473 -5.55231
rtoes -6.33408
lfemur -14.6052 2.42616 -24.3241
ltibia 62.928
lfoot -27.4404 -8.3636
ltoes 5.64658
283
root -1.73169 16.0144 -0.295292 166.997 -33.4892 -181.316
lowerback 22.7925 -2.56605 -3.54883
upperback -0.03836 -4.35495 1.24596
thorax -12.4842 -1.81017 4.8792
lowerneck -3.26111 -9.90902 -5.4978
upperneck 5.33506 -13.0251 0.313488
head 2.66251 -6.6004 0.545925
rclavicle 1.11121e-013 -1.82882e-014
rhumerus 50.2776 -5.06309 -49.2257
rradius 95.4363
rwrist 34.2035
rhand -38.6212 16.1399
rfingers 7.12502
rthumb -11.6384 -13.5168
lclavicle 1.11121e-013 -1.82882e-014
lhumerus 57.0972 -25.2724 82.3623
lradius 78.7318
lwrist 58.8275
lhand -6.64207 49.1539
lfingers 7.12502
lthumb 19.215 -281.775
rfemur -18.0828 1.27358 17.9191
rtibia 68.1838
rfoot -30.1467 -5.24743
rtoes -5.08492
lfemur -14.9431 2.44958 -24.5539
ltibia 63.8611
lfoot -27.7452 -8.50063
ltoes 6.02867
284
root -1.74513 15.962 -0.324353 167.349 -33.7386 -181.728
lowerback 23.6866 -2.77197 -3.12303
upperback -0.706933 -4.57366 0.812011
thorax -13.8197 -1.86958 4.31867
lowerneck -4.14266 -9.98851 -5.64034
upperneck 6.95249 -13.0778 -0.0103956
head 3.36872 -6.66468 0.3592
rclavicle -4.15957e-014 1.70955e-014
rhumerus 49.7962 -4.83039 -49.0852
rradius 95.4347
rwrist 34.5283
rhand -38.2559 16.3634
rfingers 7.12502
rthumb -11.2861 -13.313
lclavicle -4.15957e-014 1.70955e-014
lhumerus 56.6206 -25.3381 82.3286
lradius 78.9919
lwrist 59.3151
lhand -6.89037 49.6509
lfingers 7.12502
lthumb 18.9763 -281.255
rfemur -18.4723 0.874575 17.4687
rtibia 68.8389
rfoot -30.3923 -5.08908
rtoes -4.68229
lfemur -15.4394 2.31485 -25.0342
ltibia 64.9052
lfoot -27.9842 -8.27376
ltoes 5.60573
285
root -1.72962 15.8621 -0.395159 166.593 -33.6536 -180.915
lowerback 23.9042 -2.70813 -2.73354
upperback -0.808942 -4.36514 0.953594
thorax -14.0988 -1.78147 4.20986
lowerneck -4.42471 -10.1906 -5.52628
upperneck 7.74126 -13.328 -0.452827
head 3.66045 -6.81747 0.14271
rclavicle 1.44119e-014 1.03368e-014
rhumerus 49.5788 -4.98967 -48.5562
rradius 95.5116
rwrist 34.8256
rhand -38.1458 16.3366
rfingers 7.12502
rthumb -11.1799 -13.3456
lclavicle 1.44119e-014 1.03368e-014
lhumerus 56.5978 -25.5572 82.2375
lradius 79.4346
lwrist 59.128
lhand -7.0192 50.2609
lfingers 7.12502
lthumb 18.8524 -280.633
rfemur -18.4712 0.237411 18.3857
rtibia 69.5436
rfoot -30.5577 -5.18935
rtoes -4.99475
lfemur -15.7304 2.59909 -24.0689
ltibia 66.3722
lfoot -28.496 -7.52553
ltoes 2.83997
286
root -1.68533 15.8164 -0.520983 162.819 -32.3386 -176.4
lowerback 24.6904 -2.75674 -0.138552
upperback -0.422732 -3.58972 2.18085
thorax -14.2255 -1.58997 3.90872
lowerneck -4.69247 -10.2413 -5.52237
upperneck 8.37118 -13.3774 -0.701687
head 3.91605 -6.86442 0.0195708
rclavicle -8.17502e-014 -2.78299e-015
rhumerus 49.6569 -5.07993 -48.1061
rradius 95.6992
rwrist 35.2393
rhand -37.7923 16.2051
rfingers 7.12502
rthumb -10.8389 -13.4952
lclavicle -8.17502e-014 -2.78299e-015
lhumerus 56.624 -25.5986 82.1023
lradius 79.7888
lwrist 58.6025
lhand -7.20639 50.7024
lfingers 7.12502
lthumb 18.6723 -280.174
rfemur -16.729 1.2827 23.8955
rtibia 69.5281
rfoot -30.4768 -7.49435
rtoes -6.99207
lfemur -14.8931 3.85258 -18.699
ltibia 68.0434
lfoot -29.2818 -7.37416
ltoes -1.23076
287
root -1.66401 15.7541 -0.593781 161.244 -31.6792 -174.643
lowerback 25.1053 -2.80326 0.837443
upperback -0.106354 -3.3496 2.70587
thorax -14.1217 -1.55572 3.88495
lowerneck -6.04175 -10.1161 -5.78206
upperneck 9.46926 -13.1257 -0.530236
head 4.61055 -6.74926 0.0039126
rclavicle 7.55382e-015 1.19271e-015
rhumerus 50.2664 -5.28873 -47.7398
rradius 95.8493
rwrist 35.2757
rhand -37.0556 16.3617
rfingers 7.12502
rthumb -10.1283 -13.3745
lclavicle 7.55382e-015 1.19271e-015
lhumerus 57.2066 -25.2939 81.5365
lradius 80.136
lwrist 58.3253
lhand -7.60304 50.98
lfingers 7.12502
lthumb 18.2908 -279.86
rfemur -16.0895 1.61477 26.1959
rtibia 69.921
rfoot -30.3853 -8.72373
rtoes -9.12291
lfemur -14.7247 4.57995 -16.3548
ltibia 69.5335
lfoot -29.8161 -7.33292
ltoes -4.19439
